<svg width="108" height="118" viewBox="0 0 108 118" fill="none" xmlns="http://www.w3.org/2000/svg">
<g filter="url(#filter0_d)">
<path fill-rule="evenodd" clip-rule="evenodd" d="M4 60C6.76142 60 9 57.7614 9 55H99C99 57.7614 101.239 60 104 60V100C104 105.523 99.5229 110 94 110H14C8.47716 110 4 105.523 4 100V60Z" fill="#34364F"/>
</g>
<path fill-rule="evenodd" clip-rule="evenodd" d="M4 10C4 4.47715 8.47715 0 14 0H94C99.5228 0 104 4.47715 104 10V50C101.239 50 99 52.2386 99 55H9C9 52.2386 6.76142 50 4 50V10Z" fill="#34364F"/>
<defs>
<filter id="filter0_d" x="0" y="55" width="108" height="63" filterUnits="userSpaceOnUse" color-interpolation-filters="sRGB">
<feFlood flood-opacity="0" result="BackgroundImageFix"/>
<feColorMatrix in="SourceAlpha" type="matrix" values="0 0 0 0 0 0 0 0 0 0 0 0 0 0 0 0 0 0 127 0" result="hardAlpha"/>
<feOffset dy="4"/>
<feGaussianBlur stdDeviation="2"/>
<feComposite in2="hardAlpha" operator="out"/>
<feColorMatrix type="matrix" values="0 0 0 0 0 0 0 0 0 0 0 0 0 0 0 0 0 0 0.21 0"/>
<feBlend mode="normal" in2="BackgroundImageFix" result="effect1_dropShadow"/>
<feBlend mode="normal" in="SourceGraphic" in2="effect1_dropShadow" result="shape"/>
</filter>
</defs>
</svg>
